<svg xmlns="http://www.w3.org/2000/svg" viewBox="0 0 720 400" font-family="ui-monospace,SFMono-Regular,Menlo,monospace" role="img" aria-label="Catch rate versus ingest lag">
<rect x="0" y="0" width="720" height="400" fill="#111214"/>
<line x1="64" y1="346.0" x2="692" y2="346.0" stroke="#32343a" stroke-width="1"/>
<text x="54" y="350.0" text-anchor="end" font-size="12" fill="#aaa8a2">0%</text>
<line x1="64" y1="268.0" x2="692" y2="268.0" stroke="#32343a" stroke-width="1"/>
<text x="54" y="272.0" text-anchor="end" font-size="12" fill="#aaa8a2">25%</text>
<line x1="64" y1="190.0" x2="692" y2="190.0" stroke="#32343a" stroke-width="1"/>
<text x="54" y="194.0" text-anchor="end" font-size="12" fill="#aaa8a2">50%</text>
<line x1="64" y1="112.0" x2="692" y2="112.0" stroke="#32343a" stroke-width="1"/>
<text x="54" y="116.0" text-anchor="end" font-size="12" fill="#aaa8a2">75%</text>
<line x1="64" y1="34.0" x2="692" y2="34.0" stroke="#32343a" stroke-width="1"/>
<text x="54" y="38.0" text-anchor="end" font-size="12" fill="#aaa8a2">100%</text>
<polygon points="142.5,34.0 142.5,34.0 146.4,37.1 150.4,40.2 154.3,43.4 158.2,46.5 162.1,49.6 166.1,52.7 170.0,55.8 173.9,59.0 177.8,62.1 181.8,65.2 185.7,68.3 189.6,71.4 193.5,74.6 197.4,77.7 201.4,80.8 205.3,83.9 209.2,87.0 213.2,90.2 217.1,93.3 221.0,96.4 224.9,99.5 228.8,102.6 232.8,105.8 236.7,108.9 240.6,112.0 244.5,115.1 248.5,118.2 252.4,121.4 256.3,124.5 260.2,127.6 264.2,130.7 268.1,133.8 272.0,137.0 276.0,140.1 279.9,143.2 283.8,146.3 287.7,149.4 291.6,152.6 295.6,155.7 299.5,158.8 303.4,161.9 307.4,165.0 311.3,168.2 315.2,171.3 319.1,174.4 323.1,177.5 327.0,180.6 330.9,183.8 334.8,186.9 338.8,190.0 342.7,193.1 346.6,196.2 350.5,199.4 354.4,202.5 358.4,205.6 362.3,208.7 366.2,211.8 370.1,215.0 374.1,218.1 378.0,221.2 381.9,224.3 385.8,227.4 389.8,230.6 393.7,233.7 397.6,236.8 401.6,239.9 405.5,243.0 409.4,246.2 413.3,249.3 417.2,252.4 421.2,255.5 425.1,258.6 429.0,261.8 432.9,264.9 436.9,268.0 440.8,271.1 444.7,274.2 448.7,277.4 452.6,280.5 456.5,283.6 460.4,286.7 464.3,289.8 468.3,293.0 472.2,296.1 476.1,299.2 480.1,302.3 484.0,305.4 487.9,308.6 491.8,311.7 495.8,314.8 499.7,317.9 503.6,321.0 507.5,324.2 511.4,327.3 515.4,330.4 519.3,333.5 523.2,336.6 527.2,339.8 531.1,342.9 535.0,346.0 538.9,346.0 542.8,346.0 546.8,346.0 550.7,346.0 554.6,346.0 558.5,346.0 562.5,346.0 566.4,346.0 570.3,346.0 574.2,346.0 578.2,346.0 582.1,346.0 586.0,346.0 590.0,346.0 593.9,346.0 597.8,346.0 601.7,346.0 605.6,346.0 609.6,346.0 613.5,346.0 617.4,346.0 621.4,346.0 625.3,346.0 629.2,346.0 633.1,346.0 637.0,346.0 641.0,346.0 644.9,346.0 648.8,346.0 652.8,346.0 656.7,346.0 660.6,346.0 664.5,346.0 668.5,346.0 672.4,346.0 676.3,346.0 680.2,346.0 684.1,346.0 688.1,346.0 692.0,346.0 692.0,34.0" fill="#f27b70" fill-opacity="0.15"/>
<rect x="64.0" y="34" width="78.5" height="312" fill="#1b1d21"/>
<line x1="142.5" y1="34" x2="142.5" y2="346" stroke="#aaa8a2" stroke-width="1" stroke-dasharray="3 3"/>
<text x="142.5" y="26.0" text-anchor="middle" font-size="11" fill="#aaa8a2">P − I = 1m</text>
<line x1="535.0" y1="34" x2="535.0" y2="346" stroke="#aaa8a2" stroke-width="1" stroke-dasharray="3 3"/>
<text x="535.0" y="26.0" text-anchor="middle" font-size="11" fill="#aaa8a2">P = 6m</text>
<polyline points="64.0,34.0 64.0,34.0 67.9,34.0 71.8,34.0 75.8,34.0 79.7,34.0 83.6,34.0 87.5,34.0 91.5,34.0 95.4,34.0 99.3,34.0 103.2,34.0 107.2,34.0 111.1,34.0 115.0,34.0 118.9,34.0 122.9,34.0 126.8,34.0 130.7,34.0 134.7,34.0 138.6,34.0 142.5,34.0 146.4,37.1 150.4,40.2 154.3,43.4 158.2,46.5 162.1,49.6 166.1,52.7 170.0,55.8 173.9,59.0 177.8,62.1 181.8,65.2 185.7,68.3 189.6,71.4 193.5,74.6 197.4,77.7 201.4,80.8 205.3,83.9 209.2,87.0 213.2,90.2 217.1,93.3 221.0,96.4 224.9,99.5 228.8,102.6 232.8,105.8 236.7,108.9 240.6,112.0 244.5,115.1 248.5,118.2 252.4,121.4 256.3,124.5 260.2,127.6 264.2,130.7 268.1,133.8 272.0,137.0 276.0,140.1 279.9,143.2 283.8,146.3 287.7,149.4 291.6,152.6 295.6,155.7 299.5,158.8 303.4,161.9 307.4,165.0 311.3,168.2 315.2,171.3 319.1,174.4 323.1,177.5 327.0,180.6 330.9,183.8 334.8,186.9 338.8,190.0 342.7,193.1 346.6,196.2 350.5,199.4 354.4,202.5 358.4,205.6 362.3,208.7 366.2,211.8 370.1,215.0 374.1,218.1 378.0,221.2 381.9,224.3 385.8,227.4 389.8,230.6 393.7,233.7 397.6,236.8 401.6,239.9 405.5,243.0 409.4,246.2 413.3,249.3 417.2,252.4 421.2,255.5 425.1,258.6 429.0,261.8 432.9,264.9 436.9,268.0 440.8,271.1 444.7,274.2 448.7,277.4 452.6,280.5 456.5,283.6 460.4,286.7 464.3,289.8 468.3,293.0 472.2,296.1 476.1,299.2 480.1,302.3 484.0,305.4 487.9,308.6 491.8,311.7 495.8,314.8 499.7,317.9 503.6,321.0 507.5,324.2 511.4,327.3 515.4,330.4 519.3,333.5 523.2,336.6 527.2,339.8 531.1,342.9 535.0,346.0 538.9,346.0 542.8,346.0 546.8,346.0 550.7,346.0 554.6,346.0 558.5,346.0 562.5,346.0 566.4,346.0 570.3,346.0 574.2,346.0 578.2,346.0 582.1,346.0 586.0,346.0 590.0,346.0 593.9,346.0 597.8,346.0 601.7,346.0 605.6,346.0 609.6,346.0 613.5,346.0 617.4,346.0 621.4,346.0 625.3,346.0 629.2,346.0 633.1,346.0 637.0,346.0 641.0,346.0 644.9,346.0 648.8,346.0 652.8,346.0 656.7,346.0 660.6,346.0 664.5,346.0 668.5,346.0 672.4,346.0 676.3,346.0 680.2,346.0 684.1,346.0 688.1,346.0 692.0,346.0" fill="none" stroke="#f1f0ec" stroke-width="2.5" stroke-linejoin="round"/>
<circle cx="103.2" cy="34.0" r="4" fill="#111214" stroke="#f1f0ec" stroke-width="2"/>
<circle cx="181.8" cy="64.3" r="4" fill="#111214" stroke="#f1f0ec" stroke-width="2"/>
<circle cx="299.5" cy="157.9" r="4" fill="#111214" stroke="#f1f0ec" stroke-width="2"/>
<circle cx="456.5" cy="282.7" r="4" fill="#111214" stroke="#f1f0ec" stroke-width="2"/>
<circle cx="535.0" cy="345.1" r="4" fill="#111214" stroke="#f1f0ec" stroke-width="2"/>
<circle cx="299.5" cy="158.8" r="4.5" fill="#f27b70"/>
<text x="309.5" y="150.8" font-size="12.5" fill="#f1f0ec">3-min lag &#8594; 40% of events silently dropped</text>
<text x="64.0" y="368.0" text-anchor="middle" font-size="12" fill="#aaa8a2">0m</text>
<text x="221.0" y="368.0" text-anchor="middle" font-size="12" fill="#aaa8a2">2m</text>
<text x="378.0" y="368.0" text-anchor="middle" font-size="12" fill="#aaa8a2">4m</text>
<text x="535.0" y="368.0" text-anchor="middle" font-size="12" fill="#aaa8a2">6m</text>
<text x="692.0" y="368.0" text-anchor="middle" font-size="12" fill="#aaa8a2">8m</text>
<text x="378.0" y="392" text-anchor="middle" font-size="12.5" fill="#f1f0ec">ingest lag L  (rule: from now-6m, runs every 5m)</text>
<text x="16" y="190.0" text-anchor="middle" font-size="12.5" fill="#f1f0ec" transform="rotate(-90 16 190.0)">events the rule catches</text>
<text x="103.2" y="338.0" text-anchor="middle" font-size="10.5" fill="#aaa8a2">reliable</text>
<text x="338.8" y="338.0" text-anchor="middle" font-size="10.5" fill="#aaa8a2">silent falloff</text>
<text x="613.5" y="338.0" text-anchor="middle" font-size="10.5" fill="#aaa8a2">blind</text>
</svg>
